<svg width="45" height="44" viewBox="0 0 45 44" fill="none" xmlns="http://www.w3.org/2000/svg">
<g clip-path="url(#clip0_1846_833)">
<path d="M9.88154 19.2423C9.70429 19.1262 9.44036 19.0674 9.09361 19.0674L8.79717 19.0689C8.6029 19.0674 8.40398 19.2237 8.36606 19.4126L8.09284 20.5891C8.05027 20.7795 8.17179 20.935 8.36838 20.935H8.58974C9.08123 20.935 9.46203 20.8352 9.73525 20.6339C10.0085 20.4343 10.1486 20.1502 10.1424 19.7826C10.1439 19.5395 10.0565 19.3576 9.88154 19.2423Z" fill="white"/>
<path d="M14.7191 21.9536C14.6657 21.9552 14.2562 22.0016 14.0488 22.0271C13.8166 22.0604 13.6154 22.1069 13.452 22.1618L13.0681 22.4234C12.9784 22.5364 12.9358 22.6804 12.9358 22.8654L13.1107 23.2044C13.2291 23.2709 13.4041 23.3035 13.627 23.3035C13.774 23.3035 13.9335 23.2679 14.1007 23.1997L14.4567 23.0163L14.5976 22.829C14.6533 22.6107 14.7686 22.1254 14.7818 22.0651L14.7191 21.9536Z" fill="white"/>
<path d="M43.0898 7.69287H1.62539C1.0031 7.69287 0.5 8.19674 0.5 8.81826V34.8972C0.5 35.5187 1.0031 36.0234 1.62539 36.0234H43.0898C43.7121 36.0234 44.2152 35.5195 44.2152 34.898V8.81826C44.2152 8.19674 43.7121 7.69287 43.0898 7.69287ZM10.9365 21.4359C10.3204 21.8895 9.46285 22.1155 8.35449 22.117H8.09598C7.89706 22.117 7.70279 22.2734 7.66177 22.4607L7.35062 23.8059C7.3065 23.9978 7.11223 24.1511 6.91563 24.1511H6.01006C5.81347 24.1511 5.6904 23.9932 5.73684 23.8059L7.01006 18.2618C7.0565 18.0714 7.24923 17.9189 7.44582 17.9158L9.33746 17.915C9.74613 17.9189 10.0998 17.9436 10.4063 17.9994C10.7082 18.0566 10.9714 18.1526 11.1943 18.2888C11.4079 18.4235 11.5805 18.6039 11.6889 18.8221C11.8096 19.0404 11.863 19.3136 11.863 19.6387C11.863 20.3817 11.5573 20.9823 10.9365 21.4359ZM16.5573 20.7285L16.5232 20.9614L15.8622 23.819C15.8235 23.9909 15.6533 24.1371 15.4729 24.158L15.4605 24.1627H15.3297H14.6347H14.6184L14.6153 24.1596C14.4427 24.1433 14.3359 23.997 14.3731 23.8206V23.819L14.3746 23.8136L14.4087 23.6681L14.404 23.6627L14.0627 23.8879L13.6912 24.0953L13.2531 24.2455C13.1184 24.278 12.9288 24.2974 12.6842 24.2974C12.298 24.2974 11.9745 24.1913 11.7299 23.9723C11.4868 23.7486 11.3615 23.463 11.3615 23.1132C11.3615 22.7416 11.4474 22.4274 11.62 22.1658C11.7988 21.9057 12.0542 21.7029 12.3994 21.5512C12.7206 21.4049 13.1068 21.2966 13.548 21.2354C13.9985 21.1704 14.37 21.1232 14.8847 21.0907L15.0147 21.0102L15.031 20.8825C15.031 20.6859 14.9396 20.5505 14.7577 20.4707C14.5735 20.3933 14.2964 20.3546 13.9342 20.3546C13.6881 20.3515 13.3785 20.4019 13.0851 20.4684C12.7779 20.5381 12.6935 20.5837 12.5433 20.6286C12.4737 20.6526 12.3057 20.6642 12.3684 20.3732L12.4791 19.9173C12.4791 19.9173 12.5333 19.5729 12.8777 19.4978C13.0441 19.4607 13.0704 19.4537 13.3421 19.4119C13.7098 19.3554 14.0735 19.3268 14.4381 19.3268C15.1757 19.3268 15.7159 19.4227 16.0573 19.6155C16.4002 19.8074 16.5751 20.1077 16.5735 20.511L16.5573 20.7285ZM18.0132 26.3585L17.0751 26.3601C16.88 26.3601 16.8158 26.2053 16.935 26.0149L17.7376 24.6155C17.7376 24.6155 17.8019 24.5358 17.7446 24.0791C17.6207 23.254 17.0046 19.7463 17.0046 19.7463C16.9598 19.5566 17.0805 19.4011 17.2755 19.4011L18.0875 19.3995C18.3359 19.3995 18.5356 19.5628 18.5805 19.7548L18.9845 22.1875L19.1347 22.189C19.2608 21.9653 20.5581 19.7393 20.5581 19.7393C20.6819 19.552 20.9327 19.3933 21.1277 19.3933C21.1277 19.3933 22 19.3957 22.2144 19.3933C22.5364 19.3887 22.1896 19.9104 22.1896 19.9104L18.5797 26.0149C18.4636 26.2053 18.2067 26.3585 18.0132 26.3585ZM27.3916 21.4599C26.7732 21.9111 25.9118 22.1395 24.8034 22.1395H24.5449C24.3498 22.1364 24.1548 22.295 24.1099 22.4823L23.8034 23.8299C23.7585 24.0179 23.5604 24.1727 23.3684 24.1704L22.4605 24.1727C22.2678 24.1735 22.1409 24.0172 22.1873 23.8291L23.4613 18.2819C23.5077 18.0938 23.6981 17.9405 23.8947 17.9375L25.7887 17.9359C26.195 17.9375 26.5526 17.9661 26.8529 18.0195C27.1587 18.0752 27.4218 18.1712 27.6416 18.3082C27.8576 18.4467 28.0271 18.624 28.1401 18.8438C28.2562 19.0605 28.3127 19.3345 28.3142 19.6596C28.3142 20.4018 28.0039 21.0009 27.3916 21.4599ZM33.0093 20.7323L32.976 20.9669L32.3135 23.8221C32.2763 23.9947 32.1053 24.141 31.9272 24.1627L31.9149 24.1673H31.7848C31.5975 24.1673 31.2028 24.1673 31.089 24.1673H31.0728L31.0712 24.1627C30.8955 24.1464 30.7872 24.0009 30.8297 23.8237L30.8282 23.8214L30.832 23.8183L30.8622 23.6727L30.8568 23.6658L30.5178 23.8941L30.144 24.1008L29.7067 24.2486C29.572 24.2834 29.3816 24.2981 29.1393 24.302C28.7523 24.302 28.4319 24.1921 28.1858 23.9746C27.9412 23.7532 27.815 23.4661 27.815 23.1147C27.815 22.7455 27.9009 22.4297 28.0743 22.1697C28.2515 21.9096 28.5108 21.7076 28.8529 21.5543C29.1765 21.4073 29.565 21.3005 30.0039 21.2385C30.4512 21.1735 30.8228 21.1263 31.3413 21.0946L31.4714 21.0125L31.4853 20.8848C31.4853 20.6898 31.3955 20.5528 31.2113 20.4738C31.0271 20.3957 30.75 20.357 30.3893 20.357C30.1416 20.3554 29.8313 20.4049 29.5387 20.4707C29.233 20.5419 29.1502 20.5861 29.0008 20.631C28.9249 20.6534 28.7616 20.6666 28.8235 20.3755L28.9342 19.9204C28.9342 19.9204 28.9861 19.5752 29.332 19.5009C29.5 19.4645 29.5271 19.456 29.798 19.4166C30.1633 19.3577 30.5294 19.3291 30.894 19.3291C31.6285 19.3291 32.168 19.4266 32.5124 19.6193C32.8576 19.8113 33.0302 20.1101 33.0302 20.5133L33.0093 20.7323ZM35.9118 18.3275L34.6981 23.8237L34.6556 23.8887C34.5836 24.0435 34.4303 24.1689 34.2639 24.1689H33.4218L33.4063 24.1495C33.2461 24.1248 33.1416 23.9955 33.1796 23.8268L33.178 23.8229L33.2144 23.6642L34.3491 18.5079L34.3893 18.3283L34.435 18.2579C34.5085 18.1062 34.6587 17.9831 34.8251 17.9831H35.6355C35.8328 17.9831 35.9512 18.1371 35.9094 18.326L35.9118 18.3275ZM37.5201 17.7331H37.2167V18.1364L37.219 18.2447L37.2399 18.3175L37.2879 18.3639L37.3808 18.3786L37.4567 18.3678L37.5132 18.3508H37.5201V18.4831L37.4296 18.5009L37.3437 18.5079L37.1378 18.4344L37.0673 18.2022V17.7331H36.9652V17.6077H37.0673V17.3562H37.2167V17.6077H37.5201V17.7331ZM38.9868 17.9181V18.4885H38.8406V17.9854L38.8313 17.8779L38.8119 17.7927L38.7608 17.7424L38.6625 17.7246L38.5395 17.7563L38.4133 17.8361L38.4156 17.8794L38.4172 17.9258V18.4901H38.2701V17.987L38.2639 17.8779L38.243 17.7935L38.1935 17.7432L38.0937 17.7254L37.9721 17.7556L37.8491 17.8322V18.4901H37.7036V17.6085H37.8491V17.7068L37.9899 17.617L38.1355 17.5845L38.2887 17.6209L38.3831 17.7262L38.5457 17.617L38.7043 17.5845L38.9187 17.672L38.9884 17.9181H38.9868Z" fill="white"/>
<path d="M31.1718 21.958C31.1184 21.9572 30.7105 22.0052 30.5062 22.0315C30.2716 22.0648 30.0712 22.1105 29.9094 22.1662C29.7438 22.2312 29.6091 22.3187 29.5216 22.4278C29.4349 22.5408 29.3916 22.6848 29.3916 22.8706L29.5688 23.2088C29.6818 23.2761 29.8545 23.3086 30.0843 23.3086C30.2291 23.3086 30.3885 23.273 30.5549 23.2057L30.9086 23.0223L31.0541 22.835C31.1083 22.6144 31.226 22.1306 31.2353 22.0702L31.1718 21.958Z" fill="white"/>
<path d="M26.3297 19.2631C26.1509 19.1462 25.8909 19.089 25.5434 19.0874L25.2485 19.089C25.0534 19.0874 24.8553 19.2453 24.815 19.4334L24.541 20.6091C24.4969 20.7979 24.6231 20.9558 24.8189 20.9543H25.0441C25.5341 20.9543 25.9141 20.8537 26.1881 20.6571C26.459 20.4551 26.5968 20.1733 26.5952 19.8026C26.5906 19.5611 26.5062 19.3792 26.3297 19.2631Z" fill="white"/>
</g>
<defs>
<clipPath id="clip0_1846_833">
<rect width="43.7152" height="43.7152" fill="white" transform="translate(0.5)"/>
</clipPath>
</defs>
</svg>
